<svg xmlns="http://www.w3.org/2000/svg"
     viewBox="0 0 512 512"
     width="1024"
     height="1024">

    <!-- Center artwork -->
    <g transform="translate(0 40)">

        <!-- Laptop -->
        <g fill="none"
           stroke="white"
           stroke-width="16"
           stroke-linecap="round"
           stroke-linejoin="round">

            <!-- Screen -->
            <rect
                x="62"
                y="60"
                width="388"
                height="250"
                rx="12"/>

            <!-- Base -->
            <path
                d="
                M20 338
                H190
                C195 338 198 340 200 344
                C202 348 206 350 212 350
                H300
                C306 350 310 348 312 344
                C314 340 317 338 322 338
                H492
                C490 358 478 372 460 372
                H52
                C34 372 22 358 20 338
                Z"
                fill="white"
                stroke="white"/>

        </g>

        <!-- Power Symbol -->
        <g
            fill="none"
            stroke="white"
            stroke-width="16"
            stroke-linecap="round"
            stroke-linejoin="round">

            <!-- Open ring -->
            <path
                d="
                M229.7 142.6
                A56 56 0 1 0 282.3 142.6"/>

            <!-- Vertical line -->
            <line
                x1="256"
                y1="116"
                x2="256"
                y2="198"/>

        </g>

    </g>

</svg>